<mxfile host="Electron" modified="2023-09-22T12:06:31.698Z" agent="Mozilla/5.0 (X11; Linux x86_64) AppleWebKit/537.36 (KHTML, like Gecko) draw.io/21.7.5 Chrome/114.0.5735.289 Electron/25.8.1 Safari/537.36" etag="JVnvzW4Qs1JbhrRzjk9r" version="21.7.5" type="device">
  <diagram name="Page-1" id="8RoCM41wcxkKLGpCoiMx">
    <mxGraphModel dx="1969" dy="1243" grid="1" gridSize="10" guides="1" tooltips="1" connect="1" arrows="1" fold="1" page="1" pageScale="1" pageWidth="1100" pageHeight="850" math="0" shadow="0">
      <root>
        <mxCell id="0" />
        <mxCell id="1" parent="0" />
        <mxCell id="PqOlkljcTwzyyJMxnDRb-8" style="edgeStyle=orthogonalEdgeStyle;rounded=0;orthogonalLoop=1;jettySize=auto;html=1;exitX=0.5;exitY=1;exitDx=0;exitDy=0;entryX=0.5;entryY=0;entryDx=0;entryDy=0;" edge="1" parent="1" source="PqOlkljcTwzyyJMxnDRb-1" target="PqOlkljcTwzyyJMxnDRb-3">
          <mxGeometry relative="1" as="geometry" />
        </mxCell>
        <mxCell id="PqOlkljcTwzyyJMxnDRb-1" value="&lt;div style=&quot;color: rgb(204, 204, 204); background-color: rgb(31, 31, 31); font-family: &amp;quot;Droid Sans Mono&amp;quot;, &amp;quot;monospace&amp;quot;, monospace; font-size: 14px; line-height: 19px;&quot;&gt;keep_trying_if_fails()&lt;/div&gt;" style="rounded=1;whiteSpace=wrap;html=1;" vertex="1" parent="1">
          <mxGeometry x="100" y="220" width="260" height="60" as="geometry" />
        </mxCell>
        <mxCell id="PqOlkljcTwzyyJMxnDRb-11" style="edgeStyle=orthogonalEdgeStyle;rounded=0;orthogonalLoop=1;jettySize=auto;html=1;exitX=0.5;exitY=1;exitDx=0;exitDy=0;entryX=1;entryY=0.5;entryDx=0;entryDy=0;" edge="1" parent="1" source="PqOlkljcTwzyyJMxnDRb-2" target="PqOlkljcTwzyyJMxnDRb-6">
          <mxGeometry relative="1" as="geometry" />
        </mxCell>
        <mxCell id="PqOlkljcTwzyyJMxnDRb-2" value="&lt;div style=&quot;color: rgb(204, 204, 204); background-color: rgb(31, 31, 31); font-family: &amp;quot;Droid Sans Mono&amp;quot;, &amp;quot;monospace&amp;quot;, monospace; font-size: 14px; line-height: 19px;&quot;&gt;sendMissionToAPIForSelectedDrones()&lt;/div&gt;" style="rounded=1;whiteSpace=wrap;html=1;" vertex="1" parent="1">
          <mxGeometry x="480" y="220" width="350" height="60" as="geometry" />
        </mxCell>
        <mxCell id="PqOlkljcTwzyyJMxnDRb-7" style="edgeStyle=orthogonalEdgeStyle;rounded=0;orthogonalLoop=1;jettySize=auto;html=1;exitX=0.5;exitY=1;exitDx=0;exitDy=0;entryX=0.5;entryY=0;entryDx=0;entryDy=0;" edge="1" parent="1" source="PqOlkljcTwzyyJMxnDRb-3" target="PqOlkljcTwzyyJMxnDRb-6">
          <mxGeometry relative="1" as="geometry" />
        </mxCell>
        <mxCell id="PqOlkljcTwzyyJMxnDRb-3" value="&lt;div style=&quot;color: rgb(204, 204, 204); background-color: rgb(31, 31, 31); font-family: &amp;quot;Droid Sans Mono&amp;quot;, &amp;quot;monospace&amp;quot;, monospace; font-size: 14px; line-height: 19px;&quot;&gt;start_retrying()&lt;/div&gt;" style="rounded=1;whiteSpace=wrap;html=1;" vertex="1" parent="1">
          <mxGeometry x="100" y="410" width="260" height="60" as="geometry" />
        </mxCell>
        <mxCell id="PqOlkljcTwzyyJMxnDRb-4" style="edgeStyle=orthogonalEdgeStyle;rounded=0;orthogonalLoop=1;jettySize=auto;html=1;exitX=0.75;exitY=1;exitDx=0;exitDy=0;entryX=1;entryY=0.5;entryDx=0;entryDy=0;" edge="1" parent="1" source="PqOlkljcTwzyyJMxnDRb-3" target="PqOlkljcTwzyyJMxnDRb-3">
          <mxGeometry relative="1" as="geometry">
            <Array as="points">
              <mxPoint x="295" y="510" />
              <mxPoint x="410" y="510" />
              <mxPoint x="410" y="440" />
            </Array>
          </mxGeometry>
        </mxCell>
        <mxCell id="PqOlkljcTwzyyJMxnDRb-10" style="edgeStyle=orthogonalEdgeStyle;rounded=0;orthogonalLoop=1;jettySize=auto;html=1;exitX=0.5;exitY=1;exitDx=0;exitDy=0;entryX=0.5;entryY=0;entryDx=0;entryDy=0;" edge="1" parent="1" source="PqOlkljcTwzyyJMxnDRb-6" target="PqOlkljcTwzyyJMxnDRb-9">
          <mxGeometry relative="1" as="geometry" />
        </mxCell>
        <mxCell id="PqOlkljcTwzyyJMxnDRb-6" value="&lt;div style=&quot;color: rgb(204, 204, 204); background-color: rgb(31, 31, 31); font-family: &amp;quot;Droid Sans Mono&amp;quot;, &amp;quot;monospace&amp;quot;, monospace; font-size: 14px; line-height: 19px;&quot;&gt;sendMissionToAPI()&lt;/div&gt;" style="rounded=1;whiteSpace=wrap;html=1;" vertex="1" parent="1">
          <mxGeometry x="100" y="610" width="260" height="60" as="geometry" />
        </mxCell>
        <mxCell id="PqOlkljcTwzyyJMxnDRb-9" value="POST" style="rounded=0;whiteSpace=wrap;html=1;" vertex="1" parent="1">
          <mxGeometry x="170" y="750" width="120" height="60" as="geometry" />
        </mxCell>
        <mxCell id="PqOlkljcTwzyyJMxnDRb-15" style="edgeStyle=orthogonalEdgeStyle;rounded=0;orthogonalLoop=1;jettySize=auto;html=1;exitX=0.25;exitY=1;exitDx=0;exitDy=0;entryX=0.477;entryY=0.017;entryDx=0;entryDy=0;entryPerimeter=0;" edge="1" parent="1" source="PqOlkljcTwzyyJMxnDRb-14" target="PqOlkljcTwzyyJMxnDRb-1">
          <mxGeometry relative="1" as="geometry" />
        </mxCell>
        <mxCell id="PqOlkljcTwzyyJMxnDRb-16" style="edgeStyle=orthogonalEdgeStyle;rounded=0;orthogonalLoop=1;jettySize=auto;html=1;exitX=0.75;exitY=1;exitDx=0;exitDy=0;entryX=0.5;entryY=0;entryDx=0;entryDy=0;" edge="1" parent="1" source="PqOlkljcTwzyyJMxnDRb-14" target="PqOlkljcTwzyyJMxnDRb-2">
          <mxGeometry relative="1" as="geometry" />
        </mxCell>
        <mxCell id="PqOlkljcTwzyyJMxnDRb-14" value="&lt;div style=&quot;color: rgb(204, 204, 204); background-color: rgb(31, 31, 31); font-family: &amp;quot;Droid Sans Mono&amp;quot;, &amp;quot;monospace&amp;quot;, monospace; font-size: 14px; line-height: 19px;&quot;&gt;handleMissionStartProcess()&lt;/div&gt;" style="rounded=1;whiteSpace=wrap;html=1;" vertex="1" parent="1">
          <mxGeometry x="300" y="20" width="280" height="60" as="geometry" />
        </mxCell>
      </root>
    </mxGraphModel>
  </diagram>
</mxfile>
